#N canvas 0 0 1362 685 10;
#X declare -lib mrpeach;
#X obj 115 38 tgl 15 0 empty empty empty 17 7 0 10 -262144 -1 -1 0
1;
#X floatatom 606 227 5 0 0 0 - - -;
#X obj 42 121 float;
#X obj 43 237 hradio 15 1 0 8 empty empty empty 0 -8 0 10 -262144 -1
-1 6;
#X obj 25 495 float;
#X obj 65 495 float;
#X obj 111 492 float;
#X obj 157 492 float;
#X obj 55 568 mtof;
#X obj 329 562 osc~;
#X obj 340 614 dac~;
#X obj 194 252 vsl 15 128 0 127 0 0 empty empty empty 0 -9 0 10 -262144
-1 -1 8000 1;
#X obj 225 251 vsl 15 128 0 127 0 0 empty empty empty 0 -9 0 10 -262144
-1 -1 7900 1;
#X obj 257 253 vsl 15 128 0 127 0 0 empty empty empty 0 -9 0 10 -262144
-1 -1 5200 1;
#X obj 292 257 vsl 15 128 0 127 0 0 empty empty empty 0 -9 0 10 -262144
-1 -1 5500 1;
#X msg 532 446 send /test \$1;
#X obj 529 494 packOSC;
#X obj 1150 33 import mrpeach;
#X msg 612 410 connect 127.0.0.1 12000;
#X obj 628 535 udpsend;
#X obj 450 120 tgl 15 0 empty empty empty 17 7 0 10 -262144 -1 -1 0
1;
#X obj 587 87 metro 300;
#X obj 901 138 unpackOSC;
#X obj 367 122 bng 15 250 50 0 empty empty empty 17 7 0 10 -262144
-1 -1;
#X obj 130 89 + 750;
#X msg 755 255 float -300;
#X obj 568 132 float -300;
#X text 888 34 recieves the OSC message;
#X text 630 472 sends data to processing;
#X floatatom 45 151 5 0 0 0 - - -;
#X obj 903 56 udpreceive 8000;
#X obj 97 122 + 1;
#X obj 328 533 hip~;
#X obj 687 133 - 5;
#X obj 42 75 metro \$1;
#X obj 212 494 float;
#X obj 329 257 vsl 15 128 0 127 0 0 empty empty empty 0 -9 0 10 -262144
-1 -1 9700 1;
#X obj 363 260 vsl 15 128 0 127 0 0 empty empty empty 0 -9 0 10 -262144
-1 -1 10000 1;
#X obj 397 261 vsl 15 128 0 127 0 0 empty empty empty 0 -9 0 10 -262144
-1 -1 7800 1;
#X obj 429 263 vsl 15 128 0 127 0 0 empty empty empty 0 -9 0 10 -262144
-1 -1 6900 1;
#X obj 262 495 float;
#X obj 308 496 float;
#X obj 358 496 float;
#X obj 52 292 select 0 1 2 3 4 5 6 7;
#X obj 46 200 mod 7;
#X obj 788 186 float -725;
#X obj 783 131 bng 15 250 50 0 empty empty empty 17 7 0 10 -262144
-1 -1;
#X obj 611 341 bng 15 250 50 0 empty empty empty 17 7 0 10 -262144
-1 -1;
#X msg 408 532 1;
#X msg 469 531 0;
#X obj 552 34 routeOSC /bbang /toggle /loop /connect /on /off;
#X obj 384 585 *~ 0;
#X text 588 8 Routes the OSC message to the appropiate area;
#X text 859 179 Sets the float to stay at a constant so it does not
increase to an unaudiable freq;
#X text 839 257 resets float so the game can be played again;
#X text 531 69 determines speed float is decreased by;
#X text 98 14 toggle to start sound;
#X text 636 340 bang to connect to local host at port 12000;
#X text 1038 435 All of this is automated by messages between processing
and pd. Just need to turn DSP on and adjust sliders. Once processing
is running \, it will take care of the rest;
#X connect 0 0 34 0;
#X connect 1 0 15 0;
#X connect 1 0 24 0;
#X connect 2 0 29 0;
#X connect 2 0 31 0;
#X connect 3 0 43 0;
#X connect 4 0 8 0;
#X connect 5 0 8 0;
#X connect 6 0 8 0;
#X connect 7 0 8 0;
#X connect 8 0 32 0;
#X connect 9 0 51 0;
#X connect 11 0 4 1;
#X connect 12 0 5 1;
#X connect 13 0 6 1;
#X connect 14 0 7 1;
#X connect 15 0 16 0;
#X connect 16 0 19 0;
#X connect 18 0 19 0;
#X connect 20 0 21 0;
#X connect 21 0 26 0;
#X connect 22 0 50 0;
#X connect 23 0 25 0;
#X connect 24 0 34 1;
#X connect 25 0 26 0;
#X connect 26 0 1 0;
#X connect 26 0 33 0;
#X connect 29 0 44 0;
#X connect 30 0 22 0;
#X connect 31 0 2 1;
#X connect 32 0 9 0;
#X connect 33 0 26 1;
#X connect 34 0 2 0;
#X connect 35 0 8 0;
#X connect 36 0 35 1;
#X connect 37 0 40 1;
#X connect 38 0 41 1;
#X connect 39 0 42 1;
#X connect 40 0 8 0;
#X connect 41 0 8 0;
#X connect 42 0 8 0;
#X connect 43 0 4 0;
#X connect 43 1 5 0;
#X connect 43 2 6 0;
#X connect 43 3 7 0;
#X connect 43 4 35 0;
#X connect 43 5 40 0;
#X connect 43 6 41 0;
#X connect 43 7 42 0;
#X connect 44 0 3 0;
#X connect 45 0 1 0;
#X connect 46 0 45 0;
#X connect 47 0 18 0;
#X connect 48 0 51 1;
#X connect 49 0 51 1;
#X connect 50 0 23 0;
#X connect 50 1 20 0;
#X connect 50 1 0 0;
#X connect 50 2 46 0;
#X connect 50 3 47 0;
#X connect 50 4 48 0;
#X connect 50 5 49 0;
#X connect 51 0 10 1;
#X connect 51 0 10 0;
